<?xml version="1.0" encoding="iso-8859-1"?>
<!-- Generator: Adobe Illustrator 19.0.0, SVG Export Plug-In . SVG Version: 6.00 Build 0)  -->
<svg version="1.1" id="Capa_1" xmlns="http://www.w3.org/2000/svg" xmlns:xlink="http://www.w3.org/1999/xlink" x="0px" y="0px"
	 viewBox="0 0 512 512" style="enable-background:new 0 0 512 512;" xml:space="preserve">
<path style="fill:#87DCFA;" d="M505.33,261.477c0,136.826-110.715,249.33-249.33,249.33c-138.255,0-249.33-112.164-249.33-249.33
	c0-137.702,111.629-249.33,249.33-249.33C393.958,12.147,505.33,124.012,505.33,261.477z"/>
<path style="fill:#8C8787;" d="M397.748,260.721h-73.535c-5.94,0-10.753-4.012-10.753-8.958V18.737
	c0-4.946,4.813-8.958,10.753-8.958h34.618L397.748,260.721z"/>
<path style="fill:#9B9696;" d="M397.748,260.721h-65.248V65.362c0-4.946,4.012-8.958,8.964-8.958h17.367L397.748,260.721z"/>
<path style="fill:#82AAF0;" d="M428.831,260.717l-15.691-63.061c-4.874-1.137-9.1-3.799-12.197-7.415
	c-3.44-4.027-5.492-9.238-5.492-14.874v-48.789L367.457,14.09c-0.683-4.328-0.721-4.204-0.748-4.31
	c-0.695-3.081-2.701-5.683-5.385-7.193c-1.586-0.893-3.417-1.395-5.355-1.395h-0.542c-5.233,0-9.649,3.685-10.763,8.589
	c-0.183,0.786-0.275,1.595-0.275,2.433v202.51c0,25.403,20.594,45.997,45.998,45.996L428.831,260.717z"/>
<path style="fill:#5F82C3;" d="M461.575,61.041v44.553h-31.564V43.855c0.442-6.459,7.872-9.849,13.039-5.949l15.296,16.63
	C460.121,56.391,461.575,58.482,461.575,61.041z"/>
<path style="fill:#415A87;" d="M461.575,76.318v29.278h-31.564V59.125c0.442-6.452,7.872-9.842,13.039-5.949l15.296,16.636
	C460.121,71.66,461.575,73.758,461.575,76.318z"/>
<path style="fill:#506EA0;" d="M455.339,250.938c7.124-6.209,11.526-14.783,11.526-24.264v-83.175
	c0-8.887-0.984-17.651-2.876-26.194c-8.787-39.726-37.309-74.609-78.781-94.64l-17.75-8.574c-0.855-0.411-1.732-0.602-2.586-0.602
	c-3.318,0-6.262,2.845-5.92,6.506l11.938,128.462l6.186,66.584c2.25,24.272,21.389,43.212,45.15,45.677
	c1.731,0.183,3.494,0.275,5.271,0.275C438.374,260.992,448.214,257.147,455.339,250.938z M414.781,197.977
	c-0.557-0.084-1.099-0.191-1.64-0.32c-4.874-1.137-9.1-3.799-12.197-7.415c-3.44-4.027-5.492-9.238-5.492-14.874v-93.16
	c0-5.004,5.843-7.757,9.687-4.547c16.133,13.524,27.537,30.817,32.793,49.802c1.197,4.287,2.075,8.665,2.617,13.112
	c0.442,3.608,0.671,7.254,0.671,10.946v23.845C441.219,189.427,428.664,200.159,414.781,197.977z"/>
<path style="fill:#6E96DC;" d="M412.416,250.797c-9.964,0-18.365-6.724-20.903-15.892c-0.515-1.845-0.787-3.792-0.787-5.807
	c0-11.978,9.711-21.69,21.69-21.69c10.236,0,18.814,7.08,21.089,16.604c0.075,0.29,0.141,0.581,0.197,0.871
	c0.272,1.367,0.412,2.771,0.412,4.214c0,1.442-0.141,2.857-0.412,4.214C431.744,243.286,422.96,250.797,412.416,250.797z"/>
<path style="fill:#82AAF0;" d="M412.416,250.797c-9.964,0-18.365-6.724-20.903-15.892c2.753-10.695,12.465-18.599,24.021-18.599
	c7.08,0,13.457,2.959,17.971,7.707c0.075,0.29,0.141,0.581,0.197,0.871c0.272,1.367,0.412,2.771,0.412,4.214
	c0,1.442-0.141,2.857-0.412,4.214C431.744,243.286,422.96,250.797,412.416,250.797z"/>
<path style="fill:#FFC364;" d="M433.702,233.312H418.82c-2.332,0-4.214-1.882-4.214-4.214c0-2.323,1.883-4.214,4.214-4.214h14.88
	c0.272,1.367,0.413,2.771,0.413,4.214C434.113,230.541,433.974,231.955,433.702,233.312z"/>
<path style="fill:#5F82C3;" d="M427.497,260.992c-1.777,0-3.539-0.091-5.271-0.275c-23.761-2.464-42.9-21.404-45.15-45.677
	l-6.186-66.584c7.406-5.103,15.691-8.901,24.562-11.076v37.987c0,5.637,2.052,10.847,5.492,14.874
	c3.097,3.616,7.323,6.278,12.197,7.415c0.542,0.129,1.084,0.236,1.64,0.32c13.883,2.181,26.438-8.55,26.438-22.609v-23.844
	c0-3.692-0.229-7.339-0.671-10.946c9.909,3.974,18.841,10.054,26.316,17.712v68.385c0,9.481-4.401,18.055-11.526,24.264
	C448.214,257.147,438.374,260.992,427.497,260.992z"/>
<path style="fill:#4B5055;" d="M394.225,289.007l-114.861,80.364L256,385.717l-128.169,89.681
	c-8.219-4.925-16.12-10.312-23.672-16.13l128.477-89.896L256,353.015l122.864-85.966c6.044-4.228,14.437-2.74,18.665,3.294
	C401.746,276.386,400.269,284.78,394.225,289.007z"/>
<path style="fill:#5A5F64;" d="M407.862,459.277c-7.552,5.808-15.453,11.205-23.672,16.13L256,385.717l-23.364-16.346
	l-114.861-80.364c-6.044-4.228-7.521-12.621-3.304-18.665c4.228-6.033,12.621-7.521,18.665-3.294L256,353.015l23.364,16.356
	L407.862,459.277z"/>
<path style="fill:#FF563C;" d="M512,278.172c0,4.792-1.96,9.163-5.12,12.323c-3.16,3.16-7.511,5.12-12.313,5.12H17.433
	C7.839,295.615,0,287.766,0,278.172c0-4.792,1.96-9.163,5.12-12.323c3.16-3.16,7.511-5.12,12.313-5.12h477.133
	C504.161,260.728,512,268.578,512,278.172z"/>
<path style="fill:#FF7251;" d="M512,278.172c0,4.792-1.96,9.163-5.12,12.323c-3.16,3.16-7.511,5.12-12.313,5.12H70.954
	c-9.594,0-17.444-7.85-17.444-17.444c0-4.792,1.96-9.163,5.12-12.323c3.171-3.16,7.521-5.12,12.323-5.12h423.612
	C504.161,260.728,512,268.578,512,278.172z"/>
<path style="fill:#5F82C3;" d="M43.667,237.884c0,12.661,10.359,23.02,23.02,23.02h207.625c6.33,0,12.088-2.59,16.259-6.761
	c4.171-4.171,6.761-9.928,6.761-16.259c0-3.567-0.825-6.956-2.29-9.977c-3.735-7.702-11.636-13.039-20.73-13.039H66.688
	c-6.33,0-12.088,2.59-16.259,6.761c-1.817,1.817-3.341,3.94-4.471,6.278C44.492,230.928,43.667,234.317,43.667,237.884z"/>
<path style="fill:#6E96DC;" d="M45.958,227.908c3.735,7.697,11.642,13.033,20.73,13.033h207.625c6.33,0,12.088-2.59,16.259-6.761
	c1.817-1.817,3.336-3.94,4.471-6.273c-3.735-7.702-11.636-13.039-20.73-13.039H66.688c-6.33,0-12.088,2.59-16.259,6.761
	C48.61,223.447,47.087,225.57,45.958,227.908z"/>
<path style="fill:#EBB410;" d="M43.667,191.849c0,12.661,10.359,23.02,23.02,23.02h207.625c6.33,0,12.088-2.59,16.259-6.761
	c4.171-4.171,6.761-9.928,6.761-16.259c0-3.567-0.825-6.956-2.29-9.977c-3.735-7.702-11.636-13.039-20.73-13.039H66.688
	c-6.33,0-12.088,2.59-16.259,6.761c-1.817,1.817-3.341,3.94-4.471,6.278C44.492,184.893,43.667,188.281,43.667,191.849z"/>
<path style="fill:#F7D139;" d="M45.958,181.872c3.735,7.697,11.642,13.033,20.73,13.033h207.625c6.33,0,12.088-2.59,16.259-6.761
	c1.817-1.817,3.336-3.94,4.471-6.273c-3.735-7.702-11.636-13.039-20.73-13.039H66.688c-6.33,0-12.088,2.59-16.259,6.761
	C48.61,177.412,47.087,179.535,45.958,181.872z"/>
<path style="fill:#FF876E;" d="M43.667,145.813c0,12.661,10.359,23.02,23.02,23.02h207.625c6.33,0,12.088-2.59,16.259-6.761
	c4.171-4.171,6.761-9.928,6.761-16.259c0-3.567-0.825-6.956-2.29-9.977c-3.735-7.702-11.636-13.039-20.73-13.039H66.688
	c-6.33,0-12.088,2.59-16.259,6.761c-1.817,1.817-3.341,3.94-4.471,6.278C44.492,138.857,43.667,142.245,43.667,145.813z"/>
<path style="fill:#FF9B82;" d="M45.958,135.836c3.735,7.697,11.642,13.033,20.73,13.033h207.625c6.33,0,12.088-2.59,16.259-6.761
	c1.817-1.817,3.336-3.94,4.471-6.273c-3.735-7.702-11.636-13.039-20.73-13.039H66.688c-6.33,0-12.088,2.59-16.259,6.761
	C48.61,131.377,47.087,133.499,45.958,135.836z"/>
<g>
</g>
<g>
</g>
<g>
</g>
<g>
</g>
<g>
</g>
<g>
</g>
<g>
</g>
<g>
</g>
<g>
</g>
<g>
</g>
<g>
</g>
<g>
</g>
<g>
</g>
<g>
</g>
<g>
</g>
</svg>
