<svg height="512" viewBox="0 0 64 64" width="512" xmlns="http://www.w3.org/2000/svg"><g id="Filled_outline" data-name="Filled outline"><path d="m44 24-6-6a9.412 9.412 0 0 0 -4.989-2h-11.011s-8 6.716-8 15v26a4.012 4.012 0 0 0 4 4h22c2.117 0 4-1.727 4.031-3l3.969-24a11.1 11.1 0 0 0 -4-10zm-1.964 8.964a3.535 3.535 0 0 1 -5 0l-5-5a3.536 3.536 0 0 1 5-5l5 5a3.537 3.537 0 0 1 0 5z" fill="#5f79ba"/><path d="m22 12h12v4h-12z" fill="#f98c96"/><path d="m19 8h18v4h-18z" fill="#db527d"/><path d="m26 3h4a3 3 0 0 1 3 3v2a0 0 0 0 1 0 0h-10a0 0 0 0 1 0 0v-2a3 3 0 0 1 3-3z" fill="#f98c96"/><path d="m18 61h20v-14l-11-13h-13v23a4.012 4.012 0 0 0 4 4z" fill="#87cee9"/><path d="m36.328 33.672a4.535 4.535 0 0 0 6.414-6.414l-5-5a4.535 4.535 0 1 0 -6.414 6.414zm-3.586-10a2.537 2.537 0 0 1 3.586 0l5 5a2.536 2.536 0 0 1 -3.586 3.586l-5-5a2.54 2.54 0 0 1 0-3.586z"/><path d="m13 31v26a5.006 5.006 0 0 0 5 5h22c2.692 0 4.92-2.111 5.027-3.9l3.962-23.958a12.056 12.056 0 0 0 -4.282-10.853l-6.043-6.04a10.629 10.629 0 0 0 -3.664-1.902v-2.347h2a1 1 0 0 0 1-1v-4a1 1 0 0 0 -1-1h-3v-1a3.87 3.87 0 0 0 -4-4h-4a3.87 3.87 0 0 0 -4 4v1h-3a1 1 0 0 0 -1 1v4a1 1 0 0 0 1 1h2v2.549c-1.591 1.437-8 7.705-8 15.451zm24 29h-19a3 3 0 0 1 -3-3v-22h11.536l10.464 12.366zm-13-54a1.874 1.874 0 0 1 2-2h4a1.874 1.874 0 0 1 2 2v1h-8zm-4 5v-2h16v2zm13 2v2h-10v-2zm-10.62 4h10.631a8.448 8.448 0 0 1 4.282 1.707l6.057 6.052a10.114 10.114 0 0 1 3.664 9.078l-3.969 24a.922.922 0 0 0 -.014.139c-.014.603-1.308 2.024-3.031 2.024h-1v-13a1 1 0 0 0 -.236-.646l-11-13a1 1 0 0 0 -.764-.354h-12v-2c0-6.884 6.033-12.771 7.38-14z"/><path d="m17 37h9v2h-9z"/><path d="m17 41h7v2h-7z"/><path d="m33 56h2v2h-2z"/></g></svg>