<svg height="512" viewBox="0 0 64 64" width="512" xmlns="http://www.w3.org/2000/svg"><g id="flat"><path d="m53 41-.6 3-.8 4-.4 2-2.2 11h-30l-2.2-11-.4-2-1.4-7z" fill="#d3843d"/><rect fill="#87cee9" height="8" rx="4" width="39" x="10" y="29"/><rect fill="#f98c96" height="8" rx="4" width="34" x="20" y="21"/><rect fill="#d5716e" height="8" rx="4" width="34" x="10" y="13"/><rect fill="#d3843d" height="6" rx="3" width="37" x="17" y="7"/><rect fill="#ad6327" height="4" rx="2" width="40" x="14" y="3"/><rect fill="#ad6327" height="4" rx="2" width="44" x="12" y="37"/><g fill="#66342e"><path d="m15 37h2v4h-2z"/><path d="m19 37h2v4h-2z"/><path d="m23 37h2v4h-2z"/><path d="m27 37h2v4h-2z"/><path d="m31 37h2v4h-2z"/><path d="m35 37h2v4h-2z"/><path d="m39 37h2v4h-2z"/><path d="m43 37h2v4h-2z"/><path d="m47 37h2v4h-2z"/><path d="m51 37h2v4h-2z"/></g><g fill="#f9bb4b"><path d="m19 44h4v2h-4z"/><path d="m25 44h4v2h-4z"/><path d="m31 44h4v2h-4z"/><path d="m37 44h4v2h-4z"/><path d="m43 44h4v2h-4z"/><path d="m22 48h4v2h-4z"/><path d="m28 48h4v2h-4z"/><path d="m34 48h4v2h-4z"/><path d="m40 48h4v2h-4z"/><path d="m51.6 48-.4 2h-5.2v-2z"/><path d="m52.4 44-.4 2h-3v-2z"/><path d="m20 48v2h-3.2l-.4-2z"/></g><path d="m45 34h-31a1 1 0 0 1 0-2h31a1 1 0 0 1 0 2z" fill="#f4f4e6"/><path d="m50 26h-26a1 1 0 0 1 0-2h26a1 1 0 0 1 0 2z" fill="#f4f4e6"/><path d="m40 18h-26a1 1 0 0 1 0-2h26a1 1 0 0 1 0 2z" fill="#f4f4e6"/><path d="m21 7h4v6h-4z" fill="#66342e"/><path d="m25 7h4v6h-4z" fill="#d3843d"/><path d="m29 7h4v6h-4z" fill="#66342e"/><path d="m33 7h4v6h-4z" fill="#d3843d"/><path d="m37 7h4v6h-4z" fill="#66342e"/><path d="m41 7h4v6h-4z" fill="#d3843d"/><path d="m45 7h4v6h-4z" fill="#66342e"/></g></svg>