<?xml version="1.0" encoding="iso-8859-1"?>
<!-- Generator: Adobe Illustrator 19.0.0, SVG Export Plug-In . SVG Version: 6.00 Build 0)  -->
<svg version="1.1" id="Capa_1" xmlns="http://www.w3.org/2000/svg" xmlns:xlink="http://www.w3.org/1999/xlink" x="0px" y="0px"
	 viewBox="0 0 512 512" style="enable-background:new 0 0 512 512;" xml:space="preserve">
<path style="fill:#87DCFA;" d="M512,256c0,140.487-113.677,256-256,256C114.047,512,0,396.835,0,256C0,114.615,114.615,0,256,0
	C397.649,0,512,114.857,512,256z"/>
<path style="fill:#5F82C3;" d="M448.282,19.311v405.698C401.526,478.234,332.951,512,256,512
	c-55.501,0-106.745-17.605-148.56-47.473c-16.056-11.463-30.732-24.737-43.722-39.518V19.311C63.718,8.65,72.357,0,83.03,0H428.97
	C439.643,0,448.282,8.65,448.282,19.311z"/>
<path style="fill:#82AAF0;" d="M448.282,19.311v405.698C401.526,478.234,332.951,512,256,512
	c-55.501,0-106.745-17.605-148.56-47.473V19.311C107.44,8.65,116.079,0,126.752,0H428.97C439.643,0,448.282,8.65,448.282,19.311z"/>
<circle style="fill:#506EA0;" cx="356.392" cy="47.399" r="11.536"/>
<circle style="fill:#FFD06B;" cx="405.919" cy="47.399" r="11.536"/>
<circle style="fill:#506EA0;" cx="155.608" cy="47.399" r="11.536"/>
<circle style="fill:#FFD06B;" cx="106.081" cy="47.399" r="11.536"/>
<path style="fill:#4BCDD7;" d="M309.72,40.34v16.783c0,8.323-6.743,15.066-15.066,15.066h-77.309
	c-8.323,0-15.066-6.743-15.066-15.066V40.34c0-8.323,6.743-15.066,15.066-15.066h77.309C302.977,25.274,309.72,32.017,309.72,40.34z
	"/>
<path style="fill:#82DCE6;" d="M309.72,40.34v16.783c0,8.323-6.743,15.066-15.066,15.066h-54.384
	c-8.312,0-15.055-6.743-15.055-15.066V40.34c0-8.323,6.743-15.066,15.055-15.066h54.384C302.977,25.274,309.72,32.017,309.72,40.34z
	"/>
<g>
	<rect x="63.718" y="95.482" style="fill:#5F82C3;" width="384.564" height="27.776"/>
	<path style="fill:#5F82C3;" d="M424.356,448.882c-11.873,10.388-24.727,19.691-38.402,27.771H126.088
		c-6.395-3.772-12.621-7.828-18.648-12.126c-6.848-4.888-13.454-10.114-19.775-15.645L424.356,448.882L424.356,448.882z"/>
</g>
<circle style="fill:#415A87;" cx="256" cy="285.815" r="129.28"/>
<path style="fill:#4BCDD7;" d="M358.204,285.815c0,35.241-17.847,66.32-44.986,84.694c-10.03,6.795-21.334,11.842-33.482,14.729
	c-7.617,1.812-15.561,2.771-23.736,2.771c-56.449,0-102.204-45.745-102.204-102.194c0-4.773,0.327-9.471,0.969-14.075
	c6.848-49.79,49.559-88.129,101.235-88.129c8.175,0,16.13,0.959,23.747,2.771C324.744,197.086,358.204,237.542,358.204,285.815z"/>
<path style="fill:#82DCE6;" d="M358.204,285.815c0,35.241-17.847,66.32-44.986,84.694c-10.03,6.795-21.334,11.842-33.482,14.729
	c-45.007-10.704-78.468-51.149-78.468-99.423c0-4.773,0.327-9.471,0.969-14.075c5.763-41.92,36.948-75.718,77.509-85.358
	C324.744,197.086,358.204,237.542,358.204,285.815z"/>
<path style="fill:#415A87;" d="M344.664,360.75l-32.446-25.718c-7.824-6.202-12.496-16.025-12.496-26.277v-45.941
	c0-8.636,3.175-16.802,8.942-22.996l25.647-27.543l20.07,18.691l-25.647,27.542c-2.819,3.026-1.037,3.389-1.589,50.247
	c0,1.922,0.807,3.756,2.106,4.786l32.446,25.718L344.664,360.75z"/>
<path style="fill:#FFAF37;" d="M313.222,370.507C296.898,381.561,277.2,388.012,256,388.012c-56.448,0-102.2-45.752-102.2-102.2
	c0-4.769,0.322-9.467,0.966-14.07c27.258-3.101,59.237,1.013,80.724,28.617C235.491,300.359,265.05,340.757,313.222,370.507z"/>
<g>
	<rect x="63.718" y="95.482" style="fill:#415A87;" width="43.722" height="27.771"/>
	<path style="fill:#415A87;" d="M107.44,448.882v15.645c-6.848-4.888-13.454-10.114-19.775-15.645H107.44z"/>
</g>
<path style="fill:#F0A12B;" d="M201.269,285.815c0-3.319,0.158-6.606,0.474-9.851c-15.392-5.447-31.912-5.942-46.977-4.225
	c-0.643,4.604-0.969,9.303-0.969,14.075c0,56.449,45.755,102.194,102.204,102.194c8.175,0,16.119-0.959,23.736-2.771
	C234.729,374.534,201.269,334.088,201.269,285.815z"/>
<g>
</g>
<g>
</g>
<g>
</g>
<g>
</g>
<g>
</g>
<g>
</g>
<g>
</g>
<g>
</g>
<g>
</g>
<g>
</g>
<g>
</g>
<g>
</g>
<g>
</g>
<g>
</g>
<g>
</g>
</svg>
